<mxfile host="app.diagrams.net" modified="2023-10-10T20:27:46.505Z" agent="Mozilla/5.0 (X11; Linux x86_64; rv:102.0) Gecko/20100101 Firefox/102.0" etag="8JSq80fgLHOcuvmY6HMa" version="22.0.4" type="github">
  <diagram name="Page-1" id="wHn78Pd1td9nmhgm9uOF">
    <mxGraphModel dx="989" dy="490" grid="1" gridSize="10" guides="1" tooltips="1" connect="1" arrows="1" fold="1" page="1" pageScale="1" pageWidth="850" pageHeight="1100" math="0" shadow="0">
      <root>
        <mxCell id="0" />
        <mxCell id="1" parent="0" />
        <mxCell id="BX8NHJcZNSu14wdrrb0v-2" value="&lt;div&gt;Waitlist&lt;/div&gt;" style="shape=module;align=left;spacingLeft=20;align=center;verticalAlign=top;whiteSpace=wrap;html=1;" parent="1" vertex="1">
          <mxGeometry x="630" y="105" width="150" height="50" as="geometry" />
        </mxCell>
        <mxCell id="BX8NHJcZNSu14wdrrb0v-24" style="rounded=0;orthogonalLoop=1;jettySize=auto;html=1;exitX=0.5;exitY=1;exitDx=0;exitDy=0;entryX=0.5;entryY=0;entryDx=0;entryDy=0;endArrow=open;endFill=0;" parent="1" source="BX8NHJcZNSu14wdrrb0v-12" target="BX8NHJcZNSu14wdrrb0v-20" edge="1">
          <mxGeometry relative="1" as="geometry" />
        </mxCell>
        <mxCell id="BX8NHJcZNSu14wdrrb0v-27" style="rounded=0;orthogonalLoop=1;jettySize=auto;html=1;exitX=0.084;exitY=0.448;exitDx=0;exitDy=0;entryX=1.006;entryY=0.617;entryDx=0;entryDy=0;entryPerimeter=0;endArrow=open;endFill=0;exitPerimeter=0;" parent="1" source="BX8NHJcZNSu14wdrrb0v-12" target="BX8NHJcZNSu14wdrrb0v-21" edge="1">
          <mxGeometry relative="1" as="geometry" />
        </mxCell>
        <mxCell id="BX8NHJcZNSu14wdrrb0v-12" value="&lt;div&gt;Triage&lt;/div&gt;" style="shape=module;align=left;spacingLeft=20;align=center;verticalAlign=top;whiteSpace=wrap;html=1;" parent="1" vertex="1">
          <mxGeometry x="415" y="360" width="150" height="50" as="geometry" />
        </mxCell>
        <mxCell id="BX8NHJcZNSu14wdrrb0v-13" value="Database" style="shape=cylinder3;whiteSpace=wrap;html=1;boundedLbl=1;backgroundOutline=1;size=15;" parent="1" vertex="1">
          <mxGeometry x="460" y="90" width="60" height="80" as="geometry" />
        </mxCell>
        <mxCell id="BX8NHJcZNSu14wdrrb0v-15" value="Use" style="endArrow=open;endSize=12;dashed=1;html=1;rounded=0;exitX=0.067;exitY=0.517;exitDx=0;exitDy=0;exitPerimeter=0;" parent="1" source="BX8NHJcZNSu14wdrrb0v-2" edge="1">
          <mxGeometry x="0.0294" width="160" relative="1" as="geometry">
            <mxPoint x="660" y="130" as="sourcePoint" />
            <mxPoint x="520" y="130" as="targetPoint" />
            <mxPoint as="offset" />
          </mxGeometry>
        </mxCell>
        <mxCell id="BX8NHJcZNSu14wdrrb0v-18" value="&amp;lt;Subsystem&amp;gt;&lt;div&gt;Enter Waitlist&lt;br&gt;&lt;/div&gt;" style="shape=module;align=left;spacingLeft=20;align=center;verticalAlign=top;whiteSpace=wrap;html=1;" parent="1" vertex="1">
          <mxGeometry x="850" y="105" width="150" height="50" as="geometry" />
        </mxCell>
        <mxCell id="BX8NHJcZNSu14wdrrb0v-20" value="&amp;lt;Subsystem&amp;gt;&lt;div&gt;Hotline Triage&lt;br&gt;&lt;/div&gt;&lt;div&gt;&lt;br&gt;&lt;/div&gt;" style="shape=module;align=left;spacingLeft=20;align=center;verticalAlign=top;whiteSpace=wrap;html=1;" parent="1" vertex="1">
          <mxGeometry x="360" y="470" width="150" height="50" as="geometry" />
        </mxCell>
        <mxCell id="BX8NHJcZNSu14wdrrb0v-21" value="&amp;lt;Subsystem&amp;gt;&lt;div&gt;In-person Triage&lt;br&gt;&lt;/div&gt;" style="shape=module;align=left;spacingLeft=20;align=center;verticalAlign=top;whiteSpace=wrap;html=1;" parent="1" vertex="1">
          <mxGeometry x="220" y="360" width="150" height="50" as="geometry" />
        </mxCell>
        <mxCell id="BX8NHJcZNSu14wdrrb0v-29" value="" style="ellipse;whiteSpace=wrap;html=1;align=center;aspect=fixed;fillColor=none;strokeColor=none;resizable=0;perimeter=centerPerimeter;rotatable=0;allowArrows=0;points=[];outlineConnect=1;" parent="1" vertex="1">
          <mxGeometry x="90" y="320" width="10" height="10" as="geometry" />
        </mxCell>
        <mxCell id="BX8NHJcZNSu14wdrrb0v-32" value="" style="ellipse;whiteSpace=wrap;html=1;align=center;aspect=fixed;fillColor=none;strokeColor=none;resizable=0;perimeter=centerPerimeter;rotatable=0;allowArrows=0;points=[];outlineConnect=1;" parent="1" vertex="1">
          <mxGeometry x="140" y="280" width="10" height="10" as="geometry" />
        </mxCell>
        <mxCell id="BX8NHJcZNSu14wdrrb0v-38" style="rounded=0;orthogonalLoop=1;jettySize=auto;html=1;dashed=1;endArrow=none;endFill=0;" parent="1" source="BX8NHJcZNSu14wdrrb0v-12" edge="1">
          <mxGeometry relative="1" as="geometry">
            <mxPoint x="490" y="250" as="targetPoint" />
          </mxGeometry>
        </mxCell>
        <mxCell id="BX8NHJcZNSu14wdrrb0v-44" value="&lt;div&gt;Auth&lt;/div&gt;" style="shape=module;align=left;spacingLeft=20;align=center;verticalAlign=top;whiteSpace=wrap;html=1;" parent="1" vertex="1">
          <mxGeometry x="670" y="360" width="150" height="50" as="geometry" />
        </mxCell>
        <mxCell id="BX8NHJcZNSu14wdrrb0v-49" value="" style="rounded=0;orthogonalLoop=1;jettySize=auto;html=1;endArrow=oval;endFill=0;sketch=0;sourcePerimeterSpacing=0;targetPerimeterSpacing=0;endSize=10;exitX=0.5;exitY=1;exitDx=0;exitDy=0;exitPerimeter=0;" parent="1" source="BX8NHJcZNSu14wdrrb0v-13" edge="1">
          <mxGeometry relative="1" as="geometry">
            <mxPoint x="207" y="370" as="sourcePoint" />
            <mxPoint x="490" y="250" as="targetPoint" />
          </mxGeometry>
        </mxCell>
        <mxCell id="BX8NHJcZNSu14wdrrb0v-50" value="&lt;div&gt;API&lt;/div&gt;" style="edgeLabel;html=1;align=center;verticalAlign=middle;resizable=0;points=[];" parent="BX8NHJcZNSu14wdrrb0v-49" vertex="1" connectable="0">
          <mxGeometry x="-0.0083" y="-1" relative="1" as="geometry">
            <mxPoint as="offset" />
          </mxGeometry>
        </mxCell>
        <mxCell id="WmJ4JIkWG_iakZUvNSGp-2" value="" style="rounded=0;orthogonalLoop=1;jettySize=auto;html=1;endArrow=oval;endFill=0;sketch=0;sourcePerimeterSpacing=0;targetPerimeterSpacing=0;endSize=10;exitX=0;exitY=0;exitDx=0;exitDy=15;exitPerimeter=0;" edge="1" parent="1" source="BX8NHJcZNSu14wdrrb0v-44">
          <mxGeometry relative="1" as="geometry">
            <mxPoint x="640" y="310" as="sourcePoint" />
            <mxPoint x="610" y="380" as="targetPoint" />
          </mxGeometry>
        </mxCell>
        <mxCell id="WmJ4JIkWG_iakZUvNSGp-7" value="" style="rounded=0;orthogonalLoop=1;jettySize=auto;html=1;endArrow=halfCircle;endFill=0;endSize=6;strokeWidth=1;sketch=0;fontSize=12;curved=1;exitX=1.012;exitY=0.421;exitDx=0;exitDy=0;exitPerimeter=0;" edge="1" parent="1" source="BX8NHJcZNSu14wdrrb0v-12">
          <mxGeometry relative="1" as="geometry">
            <mxPoint x="615" y="315" as="sourcePoint" />
            <mxPoint x="610" y="380" as="targetPoint" />
          </mxGeometry>
        </mxCell>
        <mxCell id="WmJ4JIkWG_iakZUvNSGp-8" value="" style="ellipse;whiteSpace=wrap;html=1;align=center;aspect=fixed;fillColor=none;strokeColor=none;resizable=0;perimeter=centerPerimeter;rotatable=0;allowArrows=0;points=[];outlineConnect=1;" vertex="1" parent="1">
          <mxGeometry x="590" y="310" width="10" height="10" as="geometry" />
        </mxCell>
        <mxCell id="WmJ4JIkWG_iakZUvNSGp-9" value="" style="rounded=0;orthogonalLoop=1;jettySize=auto;html=1;endArrow=oval;endFill=0;sketch=0;sourcePerimeterSpacing=0;targetPerimeterSpacing=0;endSize=10;exitX=0.5;exitY=0;exitDx=0;exitDy=0;" edge="1" parent="1" source="BX8NHJcZNSu14wdrrb0v-44">
          <mxGeometry relative="1" as="geometry">
            <mxPoint x="680" y="385" as="sourcePoint" />
            <mxPoint x="730" y="250" as="targetPoint" />
          </mxGeometry>
        </mxCell>
        <mxCell id="WmJ4JIkWG_iakZUvNSGp-10" value="" style="rounded=0;orthogonalLoop=1;jettySize=auto;html=1;endArrow=halfCircle;endFill=0;endSize=6;strokeWidth=1;sketch=0;fontSize=12;curved=1;exitX=0.5;exitY=1;exitDx=0;exitDy=0;" edge="1" parent="1" source="BX8NHJcZNSu14wdrrb0v-2">
          <mxGeometry relative="1" as="geometry">
            <mxPoint x="577" y="391" as="sourcePoint" />
            <mxPoint x="730" y="250" as="targetPoint" />
          </mxGeometry>
        </mxCell>
        <mxCell id="WmJ4JIkWG_iakZUvNSGp-11" value="" style="rounded=0;orthogonalLoop=1;jettySize=auto;html=1;endArrow=oval;endFill=0;sketch=0;sourcePerimeterSpacing=0;targetPerimeterSpacing=0;endSize=10;exitX=0.25;exitY=1;exitDx=0;exitDy=0;" edge="1" parent="1" source="BX8NHJcZNSu14wdrrb0v-2">
          <mxGeometry relative="1" as="geometry">
            <mxPoint x="604.9999999999998" y="130" as="sourcePoint" />
            <mxPoint x="600" y="270" as="targetPoint" />
          </mxGeometry>
        </mxCell>
        <mxCell id="WmJ4JIkWG_iakZUvNSGp-12" value="" style="rounded=0;orthogonalLoop=1;jettySize=auto;html=1;endArrow=halfCircle;endFill=0;endSize=6;strokeWidth=1;sketch=0;fontSize=12;curved=1;exitX=0.75;exitY=0;exitDx=0;exitDy=0;" edge="1" parent="1" source="BX8NHJcZNSu14wdrrb0v-12">
          <mxGeometry relative="1" as="geometry">
            <mxPoint x="715" y="165" as="sourcePoint" />
            <mxPoint x="600" y="270" as="targetPoint" />
          </mxGeometry>
        </mxCell>
        <mxCell id="WmJ4JIkWG_iakZUvNSGp-13" style="edgeStyle=orthogonalEdgeStyle;rounded=0;orthogonalLoop=1;jettySize=auto;html=1;entryX=0.085;entryY=0.497;entryDx=0;entryDy=0;entryPerimeter=0;" edge="1" parent="1" source="BX8NHJcZNSu14wdrrb0v-2" target="BX8NHJcZNSu14wdrrb0v-18">
          <mxGeometry relative="1" as="geometry" />
        </mxCell>
      </root>
    </mxGraphModel>
  </diagram>
</mxfile>
